<?xml version="1.0" encoding="UTF-8"?>
<svg width="2481px" height="3509px" viewBox="0 0 2481 3509" version="1.1" xmlns="http://www.w3.org/2000/svg" xmlns:xlink="http://www.w3.org/1999/xlink">
    <!-- Generator: Sketch 43.2 (39069) - http://www.bohemiancoding.com/sketch -->
    <title>Untitled</title>
    <desc>Created with Sketch.</desc>
    <defs></defs>
    <g id="Page-1" stroke="none" stroke-width="1" fill="none" fill-rule="evenodd">
        <g id="Group" transform="translate(1240.000000, 1755.000000) rotate(90.000000) translate(-1240.000000, -1755.000000) translate(-514.000000, 515.000000)">
            <rect id="Rectangle" stroke="#979797" transform="translate(1754.000000, 1240.000000) rotate(90.000000) translate(-1754.000000, -1240.000000) " x="514.5" y="-513.5" width="2479" height="3507"></rect>
            <text id="@anilbms75" font-family="Helvetica" font-size="64" font-weight="normal" fill="#9B9B9B">
                <tspan x="3100" y="2465">@anilbms75</tspan>
            </text>
            <path d="M66.46875,54.59375 C60.2689617,198.624621 63.8209795,104.600213 64.984375,426.328125 C65.0936431,456.545366 70.9309751,488.710688 73.75,518.828125 C74.6631087,528.583446 77.9138815,538.109191 78.046875,547.90625 C79.7536914,673.640114 79.6354766,799.395721 79.265625,925.140625 C79.0070727,1013.04518 78.6853726,943.233832 73.09375,992.515625 C72.2207033,1000.21023 72.0220536,1007.97524 71.9375,1015.71875 C71.6365551,1043.27961 71.2786693,1070.85163 71.9375,1098.40625 C72.8945405,1138.43306 89.5464582,1144.03825 63.125,1166.40625 C62.0933955,1167.27959 57.8732155,1167.05942 59.1875,1167.375 C103.684294,1178.0592 157.365441,1189.86885 204.34375,1191.1875 C297.667573,1193.80704 314.708603,1188.57948 417,1186.67187 C456.310873,1185.93878 495.641913,1185.9572 534.953125,1186.67187 C596.207607,1187.78548 540.791181,1194.3552 621.515625,1189.42187 C632.520283,1188.74935 643.216513,1185.41076 654.171875,1184.17187 C673.724806,1181.96073 693.530594,1182.03729 712.984375,1179.07812 C723.231608,1177.51939 732.742515,1172.62535 742.921875,1170.67187 C941.187501,1132.62363 744.460829,1177.99304 787.265625,1162.59375 C790.422133,1161.45818 793.724492,1160.43817 797.078125,1160.35937 C825.497364,1159.69162 858.671283,1176.07476 882.359375,1160.35937 C904.165625,1145.89246 881.0307,1114.05399 880.875,1093.46875 C880.406222,1031.49136 883.346658,969.461114 880.875,907.53125 C868.730785,603.245803 872.519341,972.912786 869.796875,822.59375 C869.599987,811.722716 868.969458,772.945964 871.015625,755.796875 C875.398238,719.065838 879.765691,727.4982 875.578125,682.53125 C874.754452,673.686478 870.658644,665.436526 868.953125,656.71875 C864.907119,636.037547 861.866705,609.811959 860.640625,589.9375 C856.630463,524.93376 859.777662,460.277074 856.9375,395.40625 C855.995137,373.882178 852.364172,352.542053 851.15625,331.03125 C850.435278,318.192102 851.074093,305.312238 851.15625,292.453125 L850.078125,290.3125 C850.47463,228.251816 847.934678,166.044645 852.359375,104.140625 C852.969922,95.598726 861.398874,89.5425772 864.984375,81.765625 C866.645162,78.1633774 867.323827,74.1612758 867.984375,70.25 C868.651777,66.2981384 872.911706,58.8919442 868.953125,58.265625 C835.117447,52.9122074 800.521985,54.2745954 766.265625,54.15625 C646.716523,53.7432438 527.174815,56.6816657 407.625,56.671875 C381.662206,56.6697487 352.646315,52.1836833 327.53125,51.8125 C256.713679,50.7658652 184.976101,52.5366178 114.25,51.875 L66.46875,54.59375 Z" id="Path-2" stroke="#979797" stroke-width="18"></path>
            <path d="M928.532476,54.1205605 C922.332688,198.151431 925.884706,104.127023 927.048101,425.854935 C927.15737,456.072176 932.994702,488.237498 935.813726,518.354935 C936.726835,528.110256 939.977608,537.636001 940.110601,547.43306 C941.817418,673.166924 941.699203,798.922531 941.329351,924.667435 C941.070799,1012.57199 940.749099,942.760642 935.157476,992.042435 C934.28443,999.737037 934.08578,1007.50205 934.001226,1015.24556 C933.700282,1042.80642 933.342396,1070.37844 934.001226,1097.93306 C934.958267,1137.95987 951.610185,1143.56506 925.188726,1165.93306 C924.157122,1166.8064 919.936942,1166.58624 921.251226,1166.90181 C965.748021,1177.58601 1019.42917,1189.39566 1066.40748,1190.71431 C1159.7313,1193.33385 1176.77233,1188.10629 1279.06373,1186.19869 C1318.3746,1185.46559 1357.70564,1185.48401 1397.01685,1186.19869 C1458.27133,1187.31229 1402.85491,1193.88201 1483.57935,1188.94869 C1494.58401,1188.27616 1505.28024,1184.93757 1516.2356,1183.69869 C1535.78853,1181.48754 1555.59432,1181.5641 1575.0481,1178.60494 C1585.29533,1177.0462 1594.80624,1172.15216 1604.9856,1170.19869 C1803.25123,1132.15044 1606.52456,1177.51985 1649.32935,1162.12056 C1652.48586,1160.98499 1655.78822,1159.96498 1659.14185,1159.88619 C1687.56109,1159.21843 1720.73501,1175.60157 1744.4231,1159.88619 C1766.22935,1145.41927 1743.09443,1113.5808 1742.93873,1092.99556 C1742.46995,1031.01817 1745.41038,968.987924 1742.93873,907.05806 C1730.79451,602.772613 1734.58307,972.439596 1731.8606,822.12056 C1731.66371,811.249527 1731.03318,772.472775 1733.07935,755.323685 C1737.46196,718.592648 1741.82942,727.02501 1737.64185,682.05806 C1736.81818,673.213289 1732.72237,664.963337 1731.01685,656.24556 C1726.97085,635.564357 1723.93043,609.338769 1722.70435,589.46431 C1718.69419,524.46057 1721.84139,459.803885 1719.00123,394.93306 C1718.05886,373.408989 1714.4279,352.068863 1713.21998,330.55806 C1712.499,317.718912 1713.13782,304.839048 1713.21998,291.979935 L1712.14185,289.83931 C1712.53836,227.778627 1709.9984,165.571456 1714.4231,103.667435 C1715.03365,95.1255365 1723.4626,89.0693877 1727.0481,81.2924355 C1728.70889,77.6901879 1729.38755,73.6880863 1730.0481,69.7768105 C1730.7155,65.8249489 1734.97543,58.4187547 1731.01685,57.7924355 C1697.18117,52.4390179 1662.58571,53.8014059 1628.32935,53.6830605 C1508.78025,53.2700543 1389.23854,56.2084762 1269.68873,56.1986855 C1243.72593,56.1965592 1214.71004,51.7104938 1189.59498,51.3393105 C1118.77741,50.2926757 1047.03983,52.0634282 976.313726,51.4018105 L928.532476,54.1205605 Z" id="Path-2" stroke="#979797" stroke-width="18"></path>
            <path d="M1786.53248,54.1205605 C1780.33269,198.151431 1783.88471,104.127023 1785.0481,425.854935 C1785.15737,456.072176 1790.9947,488.237498 1793.81373,518.354935 C1794.72684,528.110256 1797.97761,537.636001 1798.1106,547.43306 C1799.81742,673.166924 1799.6992,798.922531 1799.32935,924.667435 C1799.0708,1012.57199 1798.7491,942.760642 1793.15748,992.042435 C1792.28443,999.737037 1792.08578,1007.50205 1792.00123,1015.24556 C1791.70028,1042.80642 1791.3424,1070.37844 1792.00123,1097.93306 C1792.95827,1137.95987 1809.61018,1143.56506 1783.18873,1165.93306 C1782.15712,1166.8064 1777.93694,1166.58624 1779.25123,1166.90181 C1823.74802,1177.58601 1877.42917,1189.39566 1924.40748,1190.71431 C2017.7313,1193.33385 2034.77233,1188.10629 2137.06373,1186.19869 C2176.3746,1185.46559 2215.70564,1185.48401 2255.01685,1186.19869 C2316.27133,1187.31229 2260.85491,1193.88201 2341.57935,1188.94869 C2352.58401,1188.27616 2363.28024,1184.93757 2374.2356,1183.69869 C2393.78853,1181.48754 2413.59432,1181.5641 2433.0481,1178.60494 C2443.29533,1177.0462 2452.80624,1172.15216 2462.9856,1170.19869 C2661.25123,1132.15044 2464.52456,1177.51985 2507.32935,1162.12056 C2510.48586,1160.98499 2513.78822,1159.96498 2517.14185,1159.88619 C2545.56109,1159.21843 2578.73501,1175.60157 2602.4231,1159.88619 C2624.22935,1145.41927 2601.09443,1113.5808 2600.93873,1092.99556 C2600.46995,1031.01817 2603.41038,968.987924 2600.93873,907.05806 C2588.79451,602.772613 2592.58307,972.439596 2589.8606,822.12056 C2589.66371,811.249527 2589.03318,772.472775 2591.07935,755.323685 C2595.46196,718.592648 2599.82942,727.02501 2595.64185,682.05806 C2594.81818,673.213289 2590.72237,664.963337 2589.01685,656.24556 C2584.97085,635.564357 2581.93043,609.338769 2580.70435,589.46431 C2576.69419,524.46057 2579.84139,459.803885 2577.00123,394.93306 C2576.05886,373.408989 2572.4279,352.068863 2571.21998,330.55806 C2570.499,317.718912 2571.13782,304.839048 2571.21998,291.979935 L2570.14185,289.83931 C2570.53836,227.778627 2567.9984,165.571456 2572.4231,103.667435 C2573.03365,95.1255365 2581.4626,89.0693877 2585.0481,81.2924355 C2586.70889,77.6901879 2587.38755,73.6880863 2588.0481,69.7768105 C2588.7155,65.8249489 2592.97543,58.4187547 2589.01685,57.7924355 C2555.18117,52.4390179 2520.58571,53.8014059 2486.32935,53.6830605 C2366.78025,53.2700543 2247.23854,56.2084762 2127.68873,56.1986855 C2101.72593,56.1965592 2072.71004,51.7104938 2047.59498,51.3393105 C1976.77741,50.2926757 1905.03983,52.0634282 1834.31373,51.4018105 L1786.53248,54.1205605 Z" id="Path-2" stroke="#979797" stroke-width="18"></path>
            <path d="M2631.53248,45.1205605 C2625.33269,189.151431 2628.88471,95.1270231 2630.0481,416.854935 C2630.15737,447.072176 2635.9947,479.237498 2638.81373,509.354935 C2639.72684,519.110256 2642.97761,528.636001 2643.1106,538.43306 C2644.81742,664.166924 2644.6992,789.922531 2644.32935,915.667435 C2644.0708,1003.57199 2643.7491,933.760642 2638.15748,983.042435 C2637.28443,990.737037 2637.08578,998.50205 2637.00123,1006.24556 C2636.70028,1033.80642 2636.3424,1061.37844 2637.00123,1088.93306 C2637.95827,1128.95987 2654.61018,1134.56506 2628.18873,1156.93306 C2627.15712,1157.8064 2622.93694,1157.58624 2624.25123,1157.90181 C2668.74802,1168.58601 2722.42917,1180.39566 2769.40748,1181.71431 C2862.7313,1184.33385 2879.77233,1179.10629 2982.06373,1177.19869 C3021.3746,1176.46559 3060.70564,1176.48401 3100.01685,1177.19869 C3161.27133,1178.31229 3105.85491,1184.88201 3186.57935,1179.94869 C3197.58401,1179.27616 3208.28024,1175.93757 3219.2356,1174.69869 C3238.78853,1172.48754 3258.59432,1172.5641 3278.0481,1169.60494 C3288.29533,1168.0462 3297.80624,1163.15216 3307.9856,1161.19869 C3506.25123,1123.15044 3309.52456,1168.51985 3352.32935,1153.12056 C3355.48586,1151.98499 3358.78822,1150.96498 3362.14185,1150.88619 C3390.56109,1150.21843 3423.73501,1166.60157 3447.4231,1150.88619 C3469.22935,1136.41927 3446.09443,1104.5808 3445.93873,1083.99556 C3445.46995,1022.01817 3448.41038,959.987924 3445.93873,898.05806 C3433.79451,593.772613 3437.58307,963.439596 3434.8606,813.12056 C3434.66371,802.249527 3434.03318,763.472775 3436.07935,746.323685 C3440.46196,709.592648 3444.82942,718.02501 3440.64185,673.05806 C3439.81818,664.213289 3435.72237,655.963337 3434.01685,647.24556 C3429.97085,626.564357 3426.93043,600.338769 3425.70435,580.46431 C3421.69419,515.46057 3424.84139,450.803885 3422.00123,385.93306 C3421.05886,364.408989 3417.4279,343.068863 3416.21998,321.55806 C3415.499,308.718912 3416.13782,295.839048 3416.21998,282.979935 L3415.14185,280.83931 C3415.53836,218.778627 3412.9984,156.571456 3417.4231,94.6674355 C3418.03365,86.1255365 3426.4626,80.0693877 3430.0481,72.2924355 C3431.70889,68.6901879 3432.38755,64.6880863 3433.0481,60.7768105 C3433.7155,56.8249489 3437.97543,49.4187547 3434.01685,48.7924355 C3400.18117,43.4390179 3365.58571,44.8014059 3331.32935,44.6830605 C3211.78025,44.2700543 3092.23854,47.2084762 2972.68873,47.1986855 C2946.72593,47.1965592 2917.71004,42.7104938 2892.59498,42.3393105 C2821.77741,41.2926757 2750.03983,43.0634282 2679.31373,42.4018105 L2631.53248,45.1205605 Z" id="Path-2" stroke="#979797" stroke-width="18"></path>
            <path d="M66.46875,1234.59375 C60.2689617,1378.62462 63.8209795,1284.60021 64.984375,1606.32812 C65.0936431,1636.54537 70.9309751,1668.71069 73.75,1698.82812 C74.6631087,1708.58345 77.9138815,1718.10919 78.046875,1727.90625 C79.7536914,1853.64011 79.6354766,1979.39572 79.265625,2105.14062 C79.0070727,2193.04518 78.6853726,2123.23383 73.09375,2172.51562 C72.2207033,2180.21023 72.0220536,2187.97524 71.9375,2195.71875 C71.6365551,2223.27961 71.2786693,2250.85163 71.9375,2278.40625 C72.8945405,2318.43306 89.5464582,2324.03825 63.125,2346.40625 C62.0933955,2347.27959 57.8732155,2347.05942 59.1875,2347.375 C103.684294,2358.0592 157.365441,2369.86885 204.34375,2371.1875 C297.667573,2373.80704 314.708603,2368.57948 417,2366.67187 C456.310873,2365.93878 495.641913,2365.9572 534.953125,2366.67187 C596.207607,2367.78548 540.791181,2374.3552 621.515625,2369.42187 C632.520283,2368.74935 643.216513,2365.41076 654.171875,2364.17187 C673.724806,2361.96073 693.530594,2362.03729 712.984375,2359.07812 C723.231608,2357.51939 732.742515,2352.62535 742.921875,2350.67187 C941.187501,2312.62363 744.460829,2357.99304 787.265625,2342.59375 C790.422133,2341.45818 793.724492,2340.43817 797.078125,2340.35937 C825.497364,2339.69162 858.671283,2356.07476 882.359375,2340.35937 C904.165625,2325.89246 881.0307,2294.05399 880.875,2273.46875 C880.406222,2211.49136 883.346658,2149.46111 880.875,2087.53125 C868.730785,1783.2458 872.519341,2152.91279 869.796875,2002.59375 C869.599987,1991.72272 868.969458,1952.94596 871.015625,1935.79687 C875.398238,1899.06584 879.765691,1907.4982 875.578125,1862.53125 C874.754452,1853.68648 870.658644,1845.43653 868.953125,1836.71875 C864.907119,1816.03755 861.866705,1789.81196 860.640625,1769.9375 C856.630463,1704.93376 859.777662,1640.27707 856.9375,1575.40625 C855.995137,1553.88218 852.364172,1532.54205 851.15625,1511.03125 C850.435278,1498.1921 851.074093,1485.31224 851.15625,1472.45312 L850.078125,1470.3125 C850.47463,1408.25182 847.934678,1346.04465 852.359375,1284.14062 C852.969922,1275.59873 861.398874,1269.54258 864.984375,1261.76562 C866.645162,1258.16338 867.323827,1254.16128 867.984375,1250.25 C868.651777,1246.29814 872.911706,1238.89194 868.953125,1238.26562 C835.117447,1232.91221 800.521985,1234.2746 766.265625,1234.15625 C646.716523,1233.74324 527.174815,1236.68167 407.625,1236.67187 C381.662206,1236.66975 352.646315,1232.18368 327.53125,1231.8125 C256.713679,1230.76587 184.976101,1232.53662 114.25,1231.875 L66.46875,1234.59375 Z" id="Path-2" stroke="#979797" stroke-width="18"></path>
            <path d="M928.532476,1234.12056 C922.332688,1378.15143 925.884706,1284.12702 927.048101,1605.85494 C927.15737,1636.07218 932.994702,1668.2375 935.813726,1698.35494 C936.726835,1708.11026 939.977608,1717.636 940.110601,1727.43306 C941.817418,1853.16692 941.699203,1978.92253 941.329351,2104.66744 C941.070799,2192.57199 940.749099,2122.76064 935.157476,2172.04244 C934.28443,2179.73704 934.08578,2187.50205 934.001226,2195.24556 C933.700282,2222.80642 933.342396,2250.37844 934.001226,2277.93306 C934.958267,2317.95987 951.610185,2323.56506 925.188726,2345.93306 C924.157122,2346.8064 919.936942,2346.58624 921.251226,2346.90181 C965.748021,2357.58601 1019.42917,2369.39566 1066.40748,2370.71431 C1159.7313,2373.33385 1176.77233,2368.10629 1279.06373,2366.19869 C1318.3746,2365.46559 1357.70564,2365.48401 1397.01685,2366.19869 C1458.27133,2367.31229 1402.85491,2373.88201 1483.57935,2368.94869 C1494.58401,2368.27616 1505.28024,2364.93757 1516.2356,2363.69869 C1535.78853,2361.48754 1555.59432,2361.5641 1575.0481,2358.60494 C1585.29533,2357.0462 1594.80624,2352.15216 1604.9856,2350.19869 C1803.25123,2312.15044 1606.52456,2357.51985 1649.32935,2342.12056 C1652.48586,2340.98499 1655.78822,2339.96498 1659.14185,2339.88619 C1687.56109,2339.21843 1720.73501,2355.60157 1744.4231,2339.88619 C1766.22935,2325.41927 1743.09443,2293.5808 1742.93873,2272.99556 C1742.46995,2211.01817 1745.41038,2148.98792 1742.93873,2087.05806 C1730.79451,1782.77261 1734.58307,2152.4396 1731.8606,2002.12056 C1731.66371,1991.24953 1731.03318,1952.47277 1733.07935,1935.32369 C1737.46196,1898.59265 1741.82942,1907.02501 1737.64185,1862.05806 C1736.81818,1853.21329 1732.72237,1844.96334 1731.01685,1836.24556 C1726.97085,1815.56436 1723.93043,1789.33877 1722.70435,1769.46431 C1718.69419,1704.46057 1721.84139,1639.80388 1719.00123,1574.93306 C1718.05886,1553.40899 1714.4279,1532.06886 1713.21998,1510.55806 C1712.499,1497.71891 1713.13782,1484.83905 1713.21998,1471.97994 L1712.14185,1469.83931 C1712.53836,1407.77863 1709.9984,1345.57146 1714.4231,1283.66744 C1715.03365,1275.12554 1723.4626,1269.06939 1727.0481,1261.29244 C1728.70889,1257.69019 1729.38755,1253.68809 1730.0481,1249.77681 C1730.7155,1245.82495 1734.97543,1238.41875 1731.01685,1237.79244 C1697.18117,1232.43902 1662.58571,1233.80141 1628.32935,1233.68306 C1508.78025,1233.27005 1389.23854,1236.20848 1269.68873,1236.19869 C1243.72593,1236.19656 1214.71004,1231.71049 1189.59498,1231.33931 C1118.77741,1230.29268 1047.03983,1232.06343 976.313726,1231.40181 L928.532476,1234.12056 Z" id="Path-2" stroke="#979797" stroke-width="18"></path>
            <path d="M1786.53248,1234.12056 C1780.33269,1378.15143 1783.88471,1284.12702 1785.0481,1605.85494 C1785.15737,1636.07218 1790.9947,1668.2375 1793.81373,1698.35494 C1794.72684,1708.11026 1797.97761,1717.636 1798.1106,1727.43306 C1799.81742,1853.16692 1799.6992,1978.92253 1799.32935,2104.66744 C1799.0708,2192.57199 1798.7491,2122.76064 1793.15748,2172.04244 C1792.28443,2179.73704 1792.08578,2187.50205 1792.00123,2195.24556 C1791.70028,2222.80642 1791.3424,2250.37844 1792.00123,2277.93306 C1792.95827,2317.95987 1809.61018,2323.56506 1783.18873,2345.93306 C1782.15712,2346.8064 1777.93694,2346.58624 1779.25123,2346.90181 C1823.74802,2357.58601 1877.42917,2369.39566 1924.40748,2370.71431 C2017.7313,2373.33385 2034.77233,2368.10629 2137.06373,2366.19869 C2176.3746,2365.46559 2215.70564,2365.48401 2255.01685,2366.19869 C2316.27133,2367.31229 2260.85491,2373.88201 2341.57935,2368.94869 C2352.58401,2368.27616 2363.28024,2364.93757 2374.2356,2363.69869 C2393.78853,2361.48754 2413.59432,2361.5641 2433.0481,2358.60494 C2443.29533,2357.0462 2452.80624,2352.15216 2462.9856,2350.19869 C2661.25123,2312.15044 2464.52456,2357.51985 2507.32935,2342.12056 C2510.48586,2340.98499 2513.78822,2339.96498 2517.14185,2339.88619 C2545.56109,2339.21843 2578.73501,2355.60157 2602.4231,2339.88619 C2624.22935,2325.41927 2601.09443,2293.5808 2600.93873,2272.99556 C2600.46995,2211.01817 2603.41038,2148.98792 2600.93873,2087.05806 C2588.79451,1782.77261 2592.58307,2152.4396 2589.8606,2002.12056 C2589.66371,1991.24953 2589.03318,1952.47277 2591.07935,1935.32369 C2595.46196,1898.59265 2599.82942,1907.02501 2595.64185,1862.05806 C2594.81818,1853.21329 2590.72237,1844.96334 2589.01685,1836.24556 C2584.97085,1815.56436 2581.93043,1789.33877 2580.70435,1769.46431 C2576.69419,1704.46057 2579.84139,1639.80388 2577.00123,1574.93306 C2576.05886,1553.40899 2572.4279,1532.06886 2571.21998,1510.55806 C2570.499,1497.71891 2571.13782,1484.83905 2571.21998,1471.97994 L2570.14185,1469.83931 C2570.53836,1407.77863 2567.9984,1345.57146 2572.4231,1283.66744 C2573.03365,1275.12554 2581.4626,1269.06939 2585.0481,1261.29244 C2586.70889,1257.69019 2587.38755,1253.68809 2588.0481,1249.77681 C2588.7155,1245.82495 2592.97543,1238.41875 2589.01685,1237.79244 C2555.18117,1232.43902 2520.58571,1233.80141 2486.32935,1233.68306 C2366.78025,1233.27005 2247.23854,1236.20848 2127.68873,1236.19869 C2101.72593,1236.19656 2072.71004,1231.71049 2047.59498,1231.33931 C1976.77741,1230.29268 1905.03983,1232.06343 1834.31373,1231.40181 L1786.53248,1234.12056 Z" id="Path-2" stroke="#979797" stroke-width="18"></path>
            <path d="M2631.53248,1225.12056 C2625.33269,1369.15143 2628.88471,1275.12702 2630.0481,1596.85494 C2630.15737,1627.07218 2635.9947,1659.2375 2638.81373,1689.35494 C2639.72684,1699.11026 2642.97761,1708.636 2643.1106,1718.43306 C2644.81742,1844.16692 2644.6992,1969.92253 2644.32935,2095.66744 C2644.0708,2183.57199 2643.7491,2113.76064 2638.15748,2163.04244 C2637.28443,2170.73704 2637.08578,2178.50205 2637.00123,2186.24556 C2636.70028,2213.80642 2636.3424,2241.37844 2637.00123,2268.93306 C2637.95827,2308.95987 2654.61018,2314.56506 2628.18873,2336.93306 C2627.15712,2337.8064 2622.93694,2337.58624 2624.25123,2337.90181 C2668.74802,2348.58601 2722.42917,2360.39566 2769.40748,2361.71431 C2862.7313,2364.33385 2879.77233,2359.10629 2982.06373,2357.19869 C3021.3746,2356.46559 3060.70564,2356.48401 3100.01685,2357.19869 C3161.27133,2358.31229 3105.85491,2364.88201 3186.57935,2359.94869 C3197.58401,2359.27616 3208.28024,2355.93757 3219.2356,2354.69869 C3238.78853,2352.48754 3258.59432,2352.5641 3278.0481,2349.60494 C3288.29533,2348.0462 3297.80624,2343.15216 3307.9856,2341.19869 C3506.25123,2303.15044 3309.52456,2348.51985 3352.32935,2333.12056 C3355.48586,2331.98499 3358.78822,2330.96498 3362.14185,2330.88619 C3390.56109,2330.21843 3423.73501,2346.60157 3447.4231,2330.88619 C3469.22935,2316.41927 3446.09443,2284.5808 3445.93873,2263.99556 C3445.46995,2202.01817 3448.41038,2139.98792 3445.93873,2078.05806 C3433.79451,1773.77261 3437.58307,2143.4396 3434.8606,1993.12056 C3434.66371,1982.24953 3434.03318,1943.47277 3436.07935,1926.32369 C3440.46196,1889.59265 3444.82942,1898.02501 3440.64185,1853.05806 C3439.81818,1844.21329 3435.72237,1835.96334 3434.01685,1827.24556 C3429.97085,1806.56436 3426.93043,1780.33877 3425.70435,1760.46431 C3421.69419,1695.46057 3424.84139,1630.80388 3422.00123,1565.93306 C3421.05886,1544.40899 3417.4279,1523.06886 3416.21998,1501.55806 C3415.499,1488.71891 3416.13782,1475.83905 3416.21998,1462.97994 L3415.14185,1460.83931 C3415.53836,1398.77863 3412.9984,1336.57146 3417.4231,1274.66744 C3418.03365,1266.12554 3426.4626,1260.06939 3430.0481,1252.29244 C3431.70889,1248.69019 3432.38755,1244.68809 3433.0481,1240.77681 C3433.7155,1236.82495 3437.97543,1229.41875 3434.01685,1228.79244 C3400.18117,1223.43902 3365.58571,1224.80141 3331.32935,1224.68306 C3211.78025,1224.27005 3092.23854,1227.20848 2972.68873,1227.19869 C2946.72593,1227.19656 2917.71004,1222.71049 2892.59498,1222.33931 C2821.77741,1221.29268 2750.03983,1223.06343 2679.31373,1222.40181 L2631.53248,1225.12056 Z" id="Path-2" stroke="#979797" stroke-width="18"></path>
            <text id="Anil-Kumar-Krishnash" font-family="Helvetica" font-size="64" font-weight="normal" fill="#9B9B9B">
                <tspan x="2285" y="2465">Anil Kumar Krishnashetty</tspan>
            </text>
        </g>
    </g>
</svg>